G04 EAGLE Gerber RS-274X export*
G75*
%MOMM*%
%FSLAX34Y34*%
%LPD*%
%INSilkscreen Top*%
%IPPOS*%
%AMOC8*
5,1,8,0,0,1.08239X$1,22.5*%
G01*
%ADD10C,0.127000*%
%ADD11C,0.254000*%
%ADD12C,0.400000*%
%ADD13C,0.012700*%


D10*
X150904Y97155D02*
X149832Y97155D01*
X149767Y97157D01*
X149703Y97163D01*
X149639Y97173D01*
X149575Y97186D01*
X149513Y97204D01*
X149452Y97225D01*
X149392Y97249D01*
X149334Y97278D01*
X149277Y97310D01*
X149223Y97345D01*
X149171Y97383D01*
X149121Y97425D01*
X149074Y97469D01*
X149030Y97516D01*
X148988Y97566D01*
X148950Y97618D01*
X148915Y97672D01*
X148883Y97729D01*
X148854Y97787D01*
X148830Y97847D01*
X148809Y97908D01*
X148791Y97970D01*
X148778Y98034D01*
X148768Y98098D01*
X148762Y98162D01*
X148760Y98227D01*
X148759Y98227D02*
X148759Y100909D01*
X148760Y100909D02*
X148762Y100974D01*
X148768Y101038D01*
X148778Y101102D01*
X148791Y101166D01*
X148809Y101228D01*
X148830Y101289D01*
X148854Y101349D01*
X148883Y101407D01*
X148915Y101464D01*
X148950Y101518D01*
X148988Y101570D01*
X149030Y101620D01*
X149074Y101667D01*
X149121Y101711D01*
X149171Y101753D01*
X149223Y101791D01*
X149277Y101826D01*
X149334Y101858D01*
X149392Y101887D01*
X149452Y101911D01*
X149513Y101932D01*
X149575Y101950D01*
X149639Y101963D01*
X149703Y101973D01*
X149767Y101979D01*
X149832Y101981D01*
X150904Y101981D01*
X154432Y101981D02*
X153360Y98227D01*
X156041Y98227D01*
X155237Y99300D02*
X155237Y97155D01*
X93345Y187932D02*
X93345Y189004D01*
X93345Y187932D02*
X93343Y187867D01*
X93337Y187803D01*
X93327Y187739D01*
X93314Y187675D01*
X93296Y187613D01*
X93275Y187552D01*
X93251Y187492D01*
X93222Y187434D01*
X93190Y187377D01*
X93155Y187323D01*
X93117Y187271D01*
X93075Y187221D01*
X93031Y187174D01*
X92984Y187130D01*
X92934Y187088D01*
X92882Y187050D01*
X92828Y187015D01*
X92771Y186983D01*
X92713Y186954D01*
X92653Y186930D01*
X92592Y186909D01*
X92530Y186891D01*
X92466Y186878D01*
X92402Y186868D01*
X92338Y186862D01*
X92273Y186860D01*
X92273Y186859D02*
X89591Y186859D01*
X89526Y186861D01*
X89462Y186867D01*
X89398Y186877D01*
X89334Y186890D01*
X89272Y186908D01*
X89211Y186929D01*
X89151Y186954D01*
X89092Y186982D01*
X89036Y187014D01*
X88981Y187049D01*
X88929Y187087D01*
X88879Y187129D01*
X88832Y187173D01*
X88788Y187220D01*
X88746Y187270D01*
X88708Y187322D01*
X88673Y187377D01*
X88641Y187433D01*
X88613Y187492D01*
X88588Y187551D01*
X88567Y187613D01*
X88549Y187675D01*
X88536Y187739D01*
X88526Y187803D01*
X88520Y187867D01*
X88518Y187932D01*
X88519Y187932D02*
X88519Y189004D01*
X93345Y191460D02*
X93345Y193068D01*
X93343Y193133D01*
X93337Y193197D01*
X93327Y193261D01*
X93314Y193325D01*
X93296Y193387D01*
X93275Y193448D01*
X93251Y193508D01*
X93222Y193566D01*
X93190Y193623D01*
X93155Y193677D01*
X93117Y193729D01*
X93075Y193779D01*
X93031Y193826D01*
X92984Y193870D01*
X92934Y193912D01*
X92882Y193950D01*
X92828Y193985D01*
X92771Y194017D01*
X92713Y194046D01*
X92653Y194070D01*
X92592Y194091D01*
X92530Y194109D01*
X92466Y194122D01*
X92402Y194132D01*
X92338Y194138D01*
X92273Y194140D01*
X92273Y194141D02*
X91736Y194141D01*
X91736Y194140D02*
X91671Y194138D01*
X91607Y194132D01*
X91543Y194122D01*
X91479Y194109D01*
X91417Y194091D01*
X91356Y194070D01*
X91296Y194046D01*
X91238Y194017D01*
X91181Y193985D01*
X91127Y193950D01*
X91075Y193912D01*
X91025Y193870D01*
X90978Y193826D01*
X90934Y193779D01*
X90892Y193729D01*
X90854Y193677D01*
X90819Y193623D01*
X90787Y193566D01*
X90758Y193508D01*
X90734Y193448D01*
X90713Y193387D01*
X90695Y193325D01*
X90682Y193261D01*
X90672Y193197D01*
X90666Y193133D01*
X90664Y193068D01*
X90664Y191460D01*
X88519Y191460D01*
X88519Y194141D01*
X441932Y97155D02*
X443004Y97155D01*
X441932Y97155D02*
X441867Y97157D01*
X441803Y97163D01*
X441739Y97173D01*
X441675Y97186D01*
X441613Y97204D01*
X441552Y97225D01*
X441492Y97249D01*
X441434Y97278D01*
X441377Y97310D01*
X441323Y97345D01*
X441271Y97383D01*
X441221Y97425D01*
X441174Y97469D01*
X441130Y97516D01*
X441088Y97566D01*
X441050Y97618D01*
X441015Y97672D01*
X440983Y97729D01*
X440954Y97787D01*
X440930Y97847D01*
X440909Y97908D01*
X440891Y97970D01*
X440878Y98034D01*
X440868Y98098D01*
X440862Y98162D01*
X440860Y98227D01*
X440859Y98227D02*
X440859Y100909D01*
X440860Y100909D02*
X440862Y100974D01*
X440868Y101038D01*
X440878Y101102D01*
X440891Y101166D01*
X440909Y101228D01*
X440930Y101289D01*
X440954Y101349D01*
X440983Y101407D01*
X441015Y101464D01*
X441050Y101518D01*
X441088Y101570D01*
X441130Y101620D01*
X441174Y101667D01*
X441221Y101711D01*
X441271Y101753D01*
X441323Y101791D01*
X441377Y101826D01*
X441434Y101858D01*
X441492Y101887D01*
X441552Y101911D01*
X441613Y101932D01*
X441675Y101950D01*
X441739Y101963D01*
X441803Y101973D01*
X441867Y101979D01*
X441932Y101981D01*
X443004Y101981D01*
X445460Y99836D02*
X447068Y99836D01*
X447133Y99834D01*
X447197Y99828D01*
X447261Y99818D01*
X447325Y99805D01*
X447387Y99787D01*
X447448Y99766D01*
X447508Y99742D01*
X447566Y99713D01*
X447623Y99681D01*
X447677Y99646D01*
X447729Y99608D01*
X447779Y99566D01*
X447826Y99522D01*
X447870Y99475D01*
X447912Y99425D01*
X447950Y99373D01*
X447985Y99319D01*
X448017Y99262D01*
X448046Y99204D01*
X448070Y99144D01*
X448091Y99083D01*
X448109Y99021D01*
X448122Y98957D01*
X448132Y98893D01*
X448138Y98829D01*
X448140Y98764D01*
X448141Y98764D02*
X448141Y98496D01*
X448139Y98425D01*
X448133Y98353D01*
X448124Y98283D01*
X448111Y98213D01*
X448094Y98143D01*
X448073Y98075D01*
X448049Y98008D01*
X448021Y97942D01*
X447990Y97878D01*
X447955Y97815D01*
X447917Y97755D01*
X447876Y97696D01*
X447832Y97640D01*
X447785Y97586D01*
X447736Y97535D01*
X447683Y97487D01*
X447628Y97441D01*
X447571Y97399D01*
X447511Y97359D01*
X447450Y97323D01*
X447386Y97290D01*
X447321Y97261D01*
X447255Y97235D01*
X447187Y97212D01*
X447118Y97193D01*
X447048Y97178D01*
X446978Y97167D01*
X446907Y97159D01*
X446836Y97155D01*
X446764Y97155D01*
X446693Y97159D01*
X446622Y97167D01*
X446552Y97178D01*
X446482Y97193D01*
X446413Y97212D01*
X446345Y97235D01*
X446279Y97261D01*
X446214Y97290D01*
X446150Y97323D01*
X446089Y97359D01*
X446029Y97399D01*
X445972Y97441D01*
X445917Y97487D01*
X445864Y97535D01*
X445815Y97586D01*
X445768Y97640D01*
X445724Y97696D01*
X445683Y97755D01*
X445645Y97815D01*
X445610Y97878D01*
X445579Y97942D01*
X445551Y98008D01*
X445527Y98075D01*
X445506Y98143D01*
X445489Y98213D01*
X445476Y98283D01*
X445467Y98353D01*
X445461Y98425D01*
X445459Y98496D01*
X445460Y98496D02*
X445460Y99836D01*
X445462Y99927D01*
X445468Y100018D01*
X445477Y100108D01*
X445491Y100199D01*
X445508Y100288D01*
X445529Y100376D01*
X445554Y100464D01*
X445583Y100551D01*
X445615Y100636D01*
X445650Y100720D01*
X445690Y100802D01*
X445732Y100882D01*
X445778Y100961D01*
X445828Y101037D01*
X445880Y101111D01*
X445936Y101184D01*
X445995Y101253D01*
X446056Y101320D01*
X446121Y101385D01*
X446188Y101446D01*
X446257Y101505D01*
X446329Y101561D01*
X446404Y101613D01*
X446480Y101663D01*
X446559Y101709D01*
X446639Y101751D01*
X446721Y101791D01*
X446805Y101826D01*
X446890Y101858D01*
X446977Y101887D01*
X447064Y101912D01*
X447153Y101933D01*
X447242Y101950D01*
X447333Y101964D01*
X447423Y101973D01*
X447514Y101979D01*
X447605Y101981D01*
D11*
X319800Y233400D02*
X289800Y233400D01*
X274800Y259400D02*
X274800Y275900D01*
X327300Y275900D02*
X334800Y275900D01*
X334800Y259400D01*
X282300Y275900D02*
X274800Y275900D01*
D12*
X278386Y282400D02*
X278388Y282475D01*
X278394Y282549D01*
X278404Y282623D01*
X278417Y282696D01*
X278435Y282769D01*
X278456Y282840D01*
X278481Y282911D01*
X278510Y282980D01*
X278543Y283047D01*
X278579Y283112D01*
X278618Y283176D01*
X278660Y283237D01*
X278706Y283296D01*
X278755Y283353D01*
X278807Y283406D01*
X278861Y283457D01*
X278918Y283506D01*
X278978Y283550D01*
X279040Y283592D01*
X279104Y283631D01*
X279170Y283666D01*
X279237Y283697D01*
X279307Y283725D01*
X279377Y283749D01*
X279449Y283770D01*
X279522Y283786D01*
X279595Y283799D01*
X279670Y283808D01*
X279744Y283813D01*
X279819Y283814D01*
X279893Y283811D01*
X279968Y283804D01*
X280041Y283793D01*
X280115Y283779D01*
X280187Y283760D01*
X280258Y283738D01*
X280328Y283712D01*
X280397Y283682D01*
X280463Y283649D01*
X280528Y283612D01*
X280591Y283572D01*
X280652Y283528D01*
X280710Y283482D01*
X280766Y283432D01*
X280819Y283380D01*
X280870Y283325D01*
X280917Y283267D01*
X280961Y283207D01*
X281002Y283144D01*
X281040Y283080D01*
X281074Y283014D01*
X281105Y282945D01*
X281132Y282876D01*
X281155Y282805D01*
X281174Y282733D01*
X281190Y282660D01*
X281202Y282586D01*
X281210Y282512D01*
X281214Y282437D01*
X281214Y282363D01*
X281210Y282288D01*
X281202Y282214D01*
X281190Y282140D01*
X281174Y282067D01*
X281155Y281995D01*
X281132Y281924D01*
X281105Y281855D01*
X281074Y281786D01*
X281040Y281720D01*
X281002Y281656D01*
X280961Y281593D01*
X280917Y281533D01*
X280870Y281475D01*
X280819Y281420D01*
X280766Y281368D01*
X280710Y281318D01*
X280652Y281272D01*
X280591Y281228D01*
X280528Y281188D01*
X280463Y281151D01*
X280397Y281118D01*
X280328Y281088D01*
X280258Y281062D01*
X280187Y281040D01*
X280115Y281021D01*
X280041Y281007D01*
X279968Y280996D01*
X279893Y280989D01*
X279819Y280986D01*
X279744Y280987D01*
X279670Y280992D01*
X279595Y281001D01*
X279522Y281014D01*
X279449Y281030D01*
X279377Y281051D01*
X279307Y281075D01*
X279237Y281103D01*
X279170Y281134D01*
X279104Y281169D01*
X279040Y281208D01*
X278978Y281250D01*
X278918Y281294D01*
X278861Y281343D01*
X278807Y281394D01*
X278755Y281447D01*
X278706Y281504D01*
X278660Y281563D01*
X278618Y281624D01*
X278579Y281688D01*
X278543Y281753D01*
X278510Y281820D01*
X278481Y281889D01*
X278456Y281960D01*
X278435Y282031D01*
X278417Y282104D01*
X278404Y282177D01*
X278394Y282251D01*
X278388Y282325D01*
X278386Y282400D01*
D10*
X293074Y263271D02*
X293074Y259517D01*
X293073Y259517D02*
X293071Y259452D01*
X293065Y259388D01*
X293055Y259324D01*
X293042Y259260D01*
X293024Y259198D01*
X293003Y259137D01*
X292979Y259077D01*
X292950Y259019D01*
X292918Y258962D01*
X292883Y258908D01*
X292845Y258856D01*
X292803Y258806D01*
X292759Y258759D01*
X292712Y258715D01*
X292662Y258673D01*
X292610Y258635D01*
X292556Y258600D01*
X292499Y258568D01*
X292441Y258539D01*
X292381Y258515D01*
X292320Y258494D01*
X292258Y258476D01*
X292194Y258463D01*
X292130Y258453D01*
X292066Y258447D01*
X292001Y258445D01*
X291465Y258445D01*
X296022Y262199D02*
X297362Y263271D01*
X297362Y258445D01*
X296022Y258445D02*
X298703Y258445D01*
X437705Y338455D02*
X437705Y343281D01*
X439046Y343281D01*
X439117Y343279D01*
X439189Y343273D01*
X439259Y343264D01*
X439329Y343251D01*
X439399Y343234D01*
X439467Y343213D01*
X439534Y343189D01*
X439600Y343161D01*
X439664Y343130D01*
X439727Y343095D01*
X439787Y343057D01*
X439846Y343016D01*
X439902Y342972D01*
X439956Y342925D01*
X440007Y342876D01*
X440055Y342823D01*
X440101Y342768D01*
X440143Y342711D01*
X440183Y342651D01*
X440219Y342590D01*
X440252Y342526D01*
X440281Y342461D01*
X440307Y342395D01*
X440330Y342327D01*
X440349Y342258D01*
X440364Y342188D01*
X440375Y342118D01*
X440383Y342047D01*
X440387Y341976D01*
X440387Y341904D01*
X440383Y341833D01*
X440375Y341762D01*
X440364Y341692D01*
X440349Y341622D01*
X440330Y341553D01*
X440307Y341485D01*
X440281Y341419D01*
X440252Y341354D01*
X440219Y341290D01*
X440183Y341229D01*
X440143Y341169D01*
X440101Y341112D01*
X440055Y341057D01*
X440007Y341004D01*
X439956Y340955D01*
X439902Y340908D01*
X439846Y340864D01*
X439787Y340823D01*
X439727Y340785D01*
X439664Y340750D01*
X439600Y340719D01*
X439534Y340691D01*
X439467Y340667D01*
X439399Y340646D01*
X439329Y340629D01*
X439259Y340616D01*
X439189Y340607D01*
X439117Y340601D01*
X439046Y340599D01*
X439046Y340600D02*
X437705Y340600D01*
X439314Y340600D02*
X440386Y338455D01*
X443128Y342209D02*
X444468Y343281D01*
X444468Y338455D01*
X443128Y338455D02*
X445809Y338455D01*
X448614Y340868D02*
X448616Y340988D01*
X448621Y341108D01*
X448630Y341228D01*
X448643Y341348D01*
X448659Y341467D01*
X448679Y341586D01*
X448703Y341704D01*
X448730Y341821D01*
X448760Y341937D01*
X448794Y342052D01*
X448832Y342167D01*
X448873Y342280D01*
X448917Y342391D01*
X448965Y342502D01*
X449016Y342611D01*
X449017Y342611D02*
X449038Y342668D01*
X449064Y342724D01*
X449092Y342779D01*
X449124Y342831D01*
X449160Y342882D01*
X449198Y342930D01*
X449239Y342976D01*
X449283Y343019D01*
X449329Y343059D01*
X449378Y343096D01*
X449430Y343130D01*
X449483Y343161D01*
X449538Y343189D01*
X449594Y343213D01*
X449652Y343234D01*
X449711Y343251D01*
X449771Y343264D01*
X449832Y343273D01*
X449894Y343279D01*
X449955Y343281D01*
X450016Y343279D01*
X450078Y343273D01*
X450139Y343264D01*
X450199Y343251D01*
X450258Y343234D01*
X450316Y343213D01*
X450372Y343189D01*
X450427Y343161D01*
X450480Y343130D01*
X450532Y343096D01*
X450581Y343059D01*
X450627Y343019D01*
X450671Y342976D01*
X450712Y342930D01*
X450750Y342882D01*
X450786Y342831D01*
X450818Y342779D01*
X450846Y342724D01*
X450872Y342668D01*
X450893Y342611D01*
X450944Y342502D01*
X450992Y342391D01*
X451036Y342280D01*
X451077Y342167D01*
X451115Y342052D01*
X451149Y341937D01*
X451179Y341821D01*
X451206Y341704D01*
X451230Y341586D01*
X451250Y341467D01*
X451266Y341348D01*
X451279Y341228D01*
X451288Y341108D01*
X451293Y340988D01*
X451295Y340868D01*
X448614Y340868D02*
X448616Y340748D01*
X448621Y340628D01*
X448630Y340508D01*
X448643Y340388D01*
X448659Y340269D01*
X448679Y340150D01*
X448703Y340032D01*
X448730Y339915D01*
X448760Y339799D01*
X448794Y339684D01*
X448832Y339569D01*
X448873Y339456D01*
X448917Y339345D01*
X448965Y339234D01*
X449016Y339125D01*
X449017Y339125D02*
X449038Y339068D01*
X449064Y339012D01*
X449092Y338957D01*
X449124Y338905D01*
X449160Y338854D01*
X449198Y338806D01*
X449239Y338760D01*
X449283Y338717D01*
X449329Y338677D01*
X449378Y338640D01*
X449430Y338606D01*
X449483Y338575D01*
X449538Y338547D01*
X449594Y338523D01*
X449652Y338502D01*
X449711Y338485D01*
X449771Y338472D01*
X449832Y338463D01*
X449894Y338457D01*
X449955Y338455D01*
X450893Y339125D02*
X450944Y339234D01*
X450992Y339345D01*
X451036Y339456D01*
X451077Y339569D01*
X451115Y339684D01*
X451149Y339799D01*
X451179Y339915D01*
X451206Y340032D01*
X451230Y340150D01*
X451250Y340269D01*
X451266Y340388D01*
X451279Y340508D01*
X451288Y340628D01*
X451293Y340748D01*
X451295Y340868D01*
X450893Y339125D02*
X450872Y339068D01*
X450846Y339012D01*
X450818Y338957D01*
X450786Y338905D01*
X450750Y338854D01*
X450712Y338806D01*
X450671Y338760D01*
X450627Y338717D01*
X450580Y338677D01*
X450532Y338640D01*
X450480Y338606D01*
X450427Y338575D01*
X450372Y338547D01*
X450316Y338523D01*
X450258Y338502D01*
X450199Y338485D01*
X450139Y338472D01*
X450078Y338463D01*
X450016Y338457D01*
X449955Y338455D01*
X448882Y339527D02*
X451027Y342209D01*
X234505Y343281D02*
X234505Y338455D01*
X234505Y343281D02*
X235846Y343281D01*
X235917Y343279D01*
X235989Y343273D01*
X236059Y343264D01*
X236129Y343251D01*
X236199Y343234D01*
X236267Y343213D01*
X236334Y343189D01*
X236400Y343161D01*
X236464Y343130D01*
X236527Y343095D01*
X236587Y343057D01*
X236646Y343016D01*
X236702Y342972D01*
X236756Y342925D01*
X236807Y342876D01*
X236855Y342823D01*
X236901Y342768D01*
X236943Y342711D01*
X236983Y342651D01*
X237019Y342590D01*
X237052Y342526D01*
X237081Y342461D01*
X237107Y342395D01*
X237130Y342327D01*
X237149Y342258D01*
X237164Y342188D01*
X237175Y342118D01*
X237183Y342047D01*
X237187Y341976D01*
X237187Y341904D01*
X237183Y341833D01*
X237175Y341762D01*
X237164Y341692D01*
X237149Y341622D01*
X237130Y341553D01*
X237107Y341485D01*
X237081Y341419D01*
X237052Y341354D01*
X237019Y341290D01*
X236983Y341229D01*
X236943Y341169D01*
X236901Y341112D01*
X236855Y341057D01*
X236807Y341004D01*
X236756Y340955D01*
X236702Y340908D01*
X236646Y340864D01*
X236587Y340823D01*
X236527Y340785D01*
X236464Y340750D01*
X236400Y340719D01*
X236334Y340691D01*
X236267Y340667D01*
X236199Y340646D01*
X236129Y340629D01*
X236059Y340616D01*
X235989Y340607D01*
X235917Y340601D01*
X235846Y340599D01*
X235846Y340600D02*
X234505Y340600D01*
X236114Y340600D02*
X237186Y338455D01*
X239928Y342209D02*
X241268Y343281D01*
X241268Y338455D01*
X239928Y338455D02*
X242609Y338455D01*
X245414Y342209D02*
X246755Y343281D01*
X246755Y338455D01*
X248095Y338455D02*
X245414Y338455D01*
X145605Y271145D02*
X145605Y266319D01*
X145605Y271145D02*
X146945Y271145D01*
X147016Y271143D01*
X147088Y271137D01*
X147158Y271128D01*
X147228Y271115D01*
X147298Y271098D01*
X147366Y271077D01*
X147433Y271053D01*
X147499Y271025D01*
X147563Y270994D01*
X147626Y270959D01*
X147686Y270921D01*
X147745Y270880D01*
X147801Y270836D01*
X147855Y270789D01*
X147906Y270740D01*
X147954Y270687D01*
X148000Y270632D01*
X148042Y270575D01*
X148082Y270515D01*
X148118Y270454D01*
X148151Y270390D01*
X148180Y270325D01*
X148206Y270259D01*
X148229Y270191D01*
X148248Y270122D01*
X148263Y270052D01*
X148274Y269982D01*
X148282Y269911D01*
X148286Y269840D01*
X148286Y269768D01*
X148282Y269697D01*
X148274Y269626D01*
X148263Y269556D01*
X148248Y269486D01*
X148229Y269417D01*
X148206Y269349D01*
X148180Y269283D01*
X148151Y269218D01*
X148118Y269154D01*
X148082Y269093D01*
X148042Y269033D01*
X148000Y268976D01*
X147954Y268921D01*
X147906Y268868D01*
X147855Y268819D01*
X147801Y268772D01*
X147745Y268728D01*
X147686Y268687D01*
X147626Y268649D01*
X147563Y268614D01*
X147499Y268583D01*
X147433Y268555D01*
X147366Y268531D01*
X147298Y268510D01*
X147228Y268493D01*
X147158Y268480D01*
X147088Y268471D01*
X147016Y268465D01*
X146945Y268463D01*
X146945Y268464D02*
X145605Y268464D01*
X147214Y268464D02*
X148286Y266319D01*
X151028Y270073D02*
X152368Y271145D01*
X152368Y266319D01*
X151028Y266319D02*
X153709Y266319D01*
X157989Y271145D02*
X158057Y271143D01*
X158124Y271137D01*
X158191Y271128D01*
X158258Y271115D01*
X158323Y271098D01*
X158388Y271077D01*
X158451Y271053D01*
X158513Y271025D01*
X158573Y270994D01*
X158631Y270960D01*
X158687Y270922D01*
X158742Y270882D01*
X158793Y270838D01*
X158842Y270791D01*
X158889Y270742D01*
X158933Y270691D01*
X158973Y270636D01*
X159011Y270580D01*
X159045Y270522D01*
X159076Y270462D01*
X159104Y270400D01*
X159128Y270337D01*
X159149Y270272D01*
X159166Y270207D01*
X159179Y270140D01*
X159188Y270073D01*
X159194Y270006D01*
X159196Y269938D01*
X157989Y271145D02*
X157911Y271143D01*
X157833Y271137D01*
X157756Y271127D01*
X157679Y271114D01*
X157603Y271096D01*
X157528Y271075D01*
X157454Y271050D01*
X157382Y271021D01*
X157311Y270989D01*
X157242Y270953D01*
X157174Y270914D01*
X157109Y270871D01*
X157046Y270825D01*
X156985Y270776D01*
X156927Y270724D01*
X156872Y270669D01*
X156819Y270612D01*
X156770Y270552D01*
X156723Y270489D01*
X156680Y270425D01*
X156640Y270358D01*
X156603Y270289D01*
X156570Y270218D01*
X156540Y270146D01*
X156514Y270073D01*
X158793Y269000D02*
X158842Y269049D01*
X158889Y269101D01*
X158932Y269156D01*
X158973Y269213D01*
X159011Y269272D01*
X159045Y269333D01*
X159076Y269396D01*
X159104Y269460D01*
X159128Y269526D01*
X159148Y269592D01*
X159165Y269660D01*
X159178Y269729D01*
X159187Y269798D01*
X159193Y269868D01*
X159195Y269938D01*
X158793Y269000D02*
X156514Y266319D01*
X159195Y266319D01*
X279019Y186448D02*
X283845Y186448D01*
X279019Y186448D02*
X279019Y187789D01*
X279021Y187860D01*
X279027Y187932D01*
X279036Y188002D01*
X279049Y188072D01*
X279066Y188142D01*
X279087Y188210D01*
X279111Y188277D01*
X279139Y188343D01*
X279170Y188407D01*
X279205Y188470D01*
X279243Y188530D01*
X279284Y188589D01*
X279328Y188645D01*
X279375Y188699D01*
X279424Y188750D01*
X279477Y188798D01*
X279532Y188844D01*
X279589Y188886D01*
X279649Y188926D01*
X279710Y188962D01*
X279774Y188995D01*
X279839Y189024D01*
X279905Y189050D01*
X279973Y189073D01*
X280042Y189092D01*
X280112Y189107D01*
X280182Y189118D01*
X280253Y189126D01*
X280324Y189130D01*
X280396Y189130D01*
X280467Y189126D01*
X280538Y189118D01*
X280608Y189107D01*
X280678Y189092D01*
X280747Y189073D01*
X280815Y189050D01*
X280881Y189024D01*
X280946Y188995D01*
X281010Y188962D01*
X281071Y188926D01*
X281131Y188886D01*
X281188Y188844D01*
X281243Y188798D01*
X281296Y188750D01*
X281345Y188699D01*
X281392Y188645D01*
X281436Y188589D01*
X281477Y188530D01*
X281515Y188470D01*
X281550Y188407D01*
X281581Y188343D01*
X281609Y188277D01*
X281633Y188210D01*
X281654Y188142D01*
X281671Y188072D01*
X281684Y188002D01*
X281693Y187932D01*
X281699Y187860D01*
X281701Y187789D01*
X281700Y187789D02*
X281700Y186448D01*
X281700Y188057D02*
X283845Y189129D01*
X279555Y191871D02*
X279019Y191871D01*
X279019Y194552D01*
X283845Y193211D01*
X453148Y380619D02*
X453148Y385445D01*
X454489Y385445D01*
X454560Y385443D01*
X454632Y385437D01*
X454702Y385428D01*
X454772Y385415D01*
X454842Y385398D01*
X454910Y385377D01*
X454977Y385353D01*
X455043Y385325D01*
X455107Y385294D01*
X455170Y385259D01*
X455230Y385221D01*
X455289Y385180D01*
X455345Y385136D01*
X455399Y385089D01*
X455450Y385040D01*
X455498Y384987D01*
X455544Y384932D01*
X455586Y384875D01*
X455626Y384815D01*
X455662Y384754D01*
X455695Y384690D01*
X455724Y384625D01*
X455750Y384559D01*
X455773Y384491D01*
X455792Y384422D01*
X455807Y384352D01*
X455818Y384282D01*
X455826Y384211D01*
X455830Y384140D01*
X455830Y384068D01*
X455826Y383997D01*
X455818Y383926D01*
X455807Y383856D01*
X455792Y383786D01*
X455773Y383717D01*
X455750Y383649D01*
X455724Y383583D01*
X455695Y383518D01*
X455662Y383454D01*
X455626Y383393D01*
X455586Y383333D01*
X455544Y383276D01*
X455498Y383221D01*
X455450Y383168D01*
X455399Y383119D01*
X455345Y383072D01*
X455289Y383028D01*
X455230Y382987D01*
X455170Y382949D01*
X455107Y382914D01*
X455043Y382883D01*
X454977Y382855D01*
X454910Y382831D01*
X454842Y382810D01*
X454772Y382793D01*
X454702Y382780D01*
X454632Y382771D01*
X454560Y382765D01*
X454489Y382763D01*
X454489Y382764D02*
X453148Y382764D01*
X454757Y382764D02*
X455829Y380619D01*
X458570Y381960D02*
X458572Y382031D01*
X458578Y382103D01*
X458587Y382173D01*
X458600Y382243D01*
X458617Y382313D01*
X458638Y382381D01*
X458662Y382448D01*
X458690Y382514D01*
X458721Y382578D01*
X458756Y382641D01*
X458794Y382701D01*
X458835Y382760D01*
X458879Y382816D01*
X458926Y382870D01*
X458975Y382921D01*
X459028Y382969D01*
X459083Y383015D01*
X459140Y383057D01*
X459200Y383097D01*
X459261Y383133D01*
X459325Y383166D01*
X459390Y383195D01*
X459456Y383221D01*
X459524Y383244D01*
X459593Y383263D01*
X459663Y383278D01*
X459733Y383289D01*
X459804Y383297D01*
X459875Y383301D01*
X459947Y383301D01*
X460018Y383297D01*
X460089Y383289D01*
X460159Y383278D01*
X460229Y383263D01*
X460298Y383244D01*
X460366Y383221D01*
X460432Y383195D01*
X460497Y383166D01*
X460561Y383133D01*
X460622Y383097D01*
X460682Y383057D01*
X460739Y383015D01*
X460794Y382969D01*
X460847Y382921D01*
X460896Y382870D01*
X460943Y382816D01*
X460987Y382760D01*
X461028Y382701D01*
X461066Y382641D01*
X461101Y382578D01*
X461132Y382514D01*
X461160Y382448D01*
X461184Y382381D01*
X461205Y382313D01*
X461222Y382243D01*
X461235Y382173D01*
X461244Y382103D01*
X461250Y382031D01*
X461252Y381960D01*
X461250Y381889D01*
X461244Y381817D01*
X461235Y381747D01*
X461222Y381677D01*
X461205Y381607D01*
X461184Y381539D01*
X461160Y381472D01*
X461132Y381406D01*
X461101Y381342D01*
X461066Y381279D01*
X461028Y381219D01*
X460987Y381160D01*
X460943Y381104D01*
X460896Y381050D01*
X460847Y380999D01*
X460794Y380951D01*
X460739Y380905D01*
X460682Y380863D01*
X460622Y380823D01*
X460561Y380787D01*
X460497Y380754D01*
X460432Y380725D01*
X460366Y380699D01*
X460298Y380676D01*
X460229Y380657D01*
X460159Y380642D01*
X460089Y380631D01*
X460018Y380623D01*
X459947Y380619D01*
X459875Y380619D01*
X459804Y380623D01*
X459733Y380631D01*
X459663Y380642D01*
X459593Y380657D01*
X459524Y380676D01*
X459456Y380699D01*
X459390Y380725D01*
X459325Y380754D01*
X459261Y380787D01*
X459200Y380823D01*
X459140Y380863D01*
X459083Y380905D01*
X459028Y380951D01*
X458975Y380999D01*
X458926Y381050D01*
X458879Y381104D01*
X458835Y381160D01*
X458794Y381219D01*
X458756Y381279D01*
X458721Y381342D01*
X458690Y381406D01*
X458662Y381472D01*
X458638Y381539D01*
X458617Y381607D01*
X458600Y381677D01*
X458587Y381747D01*
X458578Y381817D01*
X458572Y381889D01*
X458570Y381960D01*
X458839Y384373D02*
X458841Y384438D01*
X458847Y384502D01*
X458857Y384566D01*
X458870Y384630D01*
X458888Y384692D01*
X458909Y384753D01*
X458933Y384813D01*
X458962Y384871D01*
X458994Y384928D01*
X459029Y384982D01*
X459067Y385034D01*
X459109Y385084D01*
X459153Y385131D01*
X459200Y385175D01*
X459250Y385217D01*
X459302Y385255D01*
X459356Y385290D01*
X459413Y385322D01*
X459471Y385351D01*
X459531Y385375D01*
X459592Y385396D01*
X459654Y385414D01*
X459718Y385427D01*
X459782Y385437D01*
X459846Y385443D01*
X459911Y385445D01*
X459976Y385443D01*
X460040Y385437D01*
X460104Y385427D01*
X460168Y385414D01*
X460230Y385396D01*
X460291Y385375D01*
X460351Y385351D01*
X460409Y385322D01*
X460466Y385290D01*
X460520Y385255D01*
X460572Y385217D01*
X460622Y385175D01*
X460669Y385131D01*
X460713Y385084D01*
X460755Y385034D01*
X460793Y384982D01*
X460828Y384928D01*
X460860Y384871D01*
X460889Y384813D01*
X460913Y384753D01*
X460934Y384692D01*
X460952Y384630D01*
X460965Y384566D01*
X460975Y384502D01*
X460981Y384438D01*
X460983Y384373D01*
X460981Y384308D01*
X460975Y384244D01*
X460965Y384180D01*
X460952Y384116D01*
X460934Y384054D01*
X460913Y383993D01*
X460889Y383933D01*
X460860Y383875D01*
X460828Y383818D01*
X460793Y383764D01*
X460755Y383712D01*
X460713Y383662D01*
X460669Y383615D01*
X460622Y383571D01*
X460572Y383529D01*
X460520Y383491D01*
X460466Y383456D01*
X460409Y383424D01*
X460351Y383395D01*
X460291Y383371D01*
X460230Y383350D01*
X460168Y383332D01*
X460104Y383319D01*
X460040Y383309D01*
X459976Y383303D01*
X459911Y383301D01*
X459846Y383303D01*
X459782Y383309D01*
X459718Y383319D01*
X459654Y383332D01*
X459592Y383350D01*
X459531Y383371D01*
X459471Y383395D01*
X459413Y383424D01*
X459356Y383456D01*
X459302Y383491D01*
X459250Y383529D01*
X459200Y383571D01*
X459153Y383615D01*
X459109Y383662D01*
X459067Y383712D01*
X459029Y383764D01*
X458994Y383818D01*
X458962Y383875D01*
X458933Y383933D01*
X458909Y383993D01*
X458888Y384054D01*
X458870Y384116D01*
X458857Y384180D01*
X458847Y384244D01*
X458841Y384308D01*
X458839Y384373D01*
X148348Y401955D02*
X148348Y406781D01*
X149689Y406781D01*
X149760Y406779D01*
X149832Y406773D01*
X149902Y406764D01*
X149972Y406751D01*
X150042Y406734D01*
X150110Y406713D01*
X150177Y406689D01*
X150243Y406661D01*
X150307Y406630D01*
X150370Y406595D01*
X150430Y406557D01*
X150489Y406516D01*
X150545Y406472D01*
X150599Y406425D01*
X150650Y406376D01*
X150698Y406323D01*
X150744Y406268D01*
X150786Y406211D01*
X150826Y406151D01*
X150862Y406090D01*
X150895Y406026D01*
X150924Y405961D01*
X150950Y405895D01*
X150973Y405827D01*
X150992Y405758D01*
X151007Y405688D01*
X151018Y405618D01*
X151026Y405547D01*
X151030Y405476D01*
X151030Y405404D01*
X151026Y405333D01*
X151018Y405262D01*
X151007Y405192D01*
X150992Y405122D01*
X150973Y405053D01*
X150950Y404985D01*
X150924Y404919D01*
X150895Y404854D01*
X150862Y404790D01*
X150826Y404729D01*
X150786Y404669D01*
X150744Y404612D01*
X150698Y404557D01*
X150650Y404504D01*
X150599Y404455D01*
X150545Y404408D01*
X150489Y404364D01*
X150430Y404323D01*
X150370Y404285D01*
X150307Y404250D01*
X150243Y404219D01*
X150177Y404191D01*
X150110Y404167D01*
X150042Y404146D01*
X149972Y404129D01*
X149902Y404116D01*
X149832Y404107D01*
X149760Y404101D01*
X149689Y404099D01*
X149689Y404100D02*
X148348Y404100D01*
X149957Y404100D02*
X151029Y401955D01*
X154843Y404100D02*
X156452Y404100D01*
X154843Y404100D02*
X154778Y404102D01*
X154714Y404108D01*
X154650Y404118D01*
X154586Y404131D01*
X154524Y404149D01*
X154463Y404170D01*
X154403Y404194D01*
X154345Y404223D01*
X154288Y404255D01*
X154234Y404290D01*
X154182Y404328D01*
X154132Y404370D01*
X154085Y404414D01*
X154041Y404461D01*
X153999Y404511D01*
X153961Y404563D01*
X153926Y404617D01*
X153894Y404674D01*
X153865Y404732D01*
X153841Y404792D01*
X153820Y404853D01*
X153802Y404915D01*
X153789Y404979D01*
X153779Y405043D01*
X153773Y405107D01*
X153771Y405172D01*
X153771Y405440D01*
X153770Y405440D02*
X153772Y405511D01*
X153778Y405583D01*
X153787Y405653D01*
X153800Y405723D01*
X153817Y405793D01*
X153838Y405861D01*
X153862Y405928D01*
X153890Y405994D01*
X153921Y406058D01*
X153956Y406121D01*
X153994Y406181D01*
X154035Y406240D01*
X154079Y406296D01*
X154126Y406350D01*
X154175Y406401D01*
X154228Y406449D01*
X154283Y406495D01*
X154340Y406537D01*
X154400Y406577D01*
X154461Y406613D01*
X154525Y406646D01*
X154590Y406675D01*
X154656Y406701D01*
X154724Y406724D01*
X154793Y406743D01*
X154863Y406758D01*
X154933Y406769D01*
X155004Y406777D01*
X155075Y406781D01*
X155147Y406781D01*
X155218Y406777D01*
X155289Y406769D01*
X155359Y406758D01*
X155429Y406743D01*
X155498Y406724D01*
X155566Y406701D01*
X155632Y406675D01*
X155697Y406646D01*
X155761Y406613D01*
X155822Y406577D01*
X155882Y406537D01*
X155939Y406495D01*
X155994Y406449D01*
X156047Y406401D01*
X156096Y406350D01*
X156143Y406296D01*
X156187Y406240D01*
X156228Y406181D01*
X156266Y406121D01*
X156301Y406058D01*
X156332Y405994D01*
X156360Y405928D01*
X156384Y405861D01*
X156405Y405793D01*
X156422Y405723D01*
X156435Y405653D01*
X156444Y405583D01*
X156450Y405511D01*
X156452Y405440D01*
X156452Y404100D01*
X156450Y404009D01*
X156444Y403918D01*
X156435Y403828D01*
X156421Y403737D01*
X156404Y403648D01*
X156383Y403560D01*
X156358Y403472D01*
X156329Y403385D01*
X156297Y403300D01*
X156262Y403216D01*
X156222Y403134D01*
X156180Y403054D01*
X156134Y402975D01*
X156084Y402899D01*
X156032Y402825D01*
X155976Y402752D01*
X155917Y402683D01*
X155856Y402616D01*
X155791Y402551D01*
X155724Y402490D01*
X155655Y402431D01*
X155582Y402375D01*
X155508Y402323D01*
X155432Y402273D01*
X155353Y402227D01*
X155273Y402185D01*
X155191Y402145D01*
X155107Y402110D01*
X155022Y402078D01*
X154935Y402049D01*
X154847Y402024D01*
X154759Y402003D01*
X154670Y401986D01*
X154579Y401972D01*
X154489Y401963D01*
X154398Y401957D01*
X154307Y401955D01*
X258450Y72390D02*
X300350Y72390D01*
D13*
X304020Y100560D02*
X302986Y100073D01*
X302705Y100648D01*
X302410Y101217D01*
X302101Y101777D01*
X301778Y102330D01*
X301442Y102875D01*
X301093Y103411D01*
X300730Y103939D01*
X300355Y104458D01*
X299967Y104967D01*
X299567Y105467D01*
X299154Y105956D01*
X298730Y106436D01*
X298294Y106905D01*
X297847Y107363D01*
X297388Y107810D01*
X296919Y108245D01*
X296439Y108669D01*
X295949Y109081D01*
X295450Y109481D01*
X294940Y109868D01*
X294421Y110243D01*
X293893Y110605D01*
X293356Y110954D01*
X292811Y111290D01*
X292258Y111612D01*
X291697Y111921D01*
X291128Y112215D01*
X290553Y112496D01*
X289971Y112762D01*
X289382Y113014D01*
X288788Y113252D01*
X288188Y113475D01*
X287582Y113683D01*
X286972Y113876D01*
X286357Y114055D01*
X285738Y114218D01*
X285115Y114366D01*
X284489Y114498D01*
X283860Y114615D01*
X283227Y114717D01*
X282593Y114803D01*
X281957Y114873D01*
X281319Y114928D01*
X280680Y114968D01*
X280040Y114991D01*
X279400Y114999D01*
X278760Y114991D01*
X278120Y114968D01*
X277481Y114928D01*
X276843Y114873D01*
X276207Y114803D01*
X275573Y114717D01*
X274940Y114615D01*
X274311Y114498D01*
X273685Y114366D01*
X273062Y114218D01*
X272443Y114055D01*
X271828Y113876D01*
X271218Y113683D01*
X270612Y113475D01*
X270012Y113252D01*
X269418Y113014D01*
X268829Y112762D01*
X268247Y112496D01*
X267672Y112215D01*
X267103Y111921D01*
X266542Y111612D01*
X265989Y111290D01*
X265444Y110954D01*
X264907Y110605D01*
X264379Y110243D01*
X263860Y109868D01*
X263350Y109481D01*
X262851Y109081D01*
X262361Y108669D01*
X261881Y108245D01*
X261412Y107810D01*
X260953Y107363D01*
X260506Y106905D01*
X260070Y106436D01*
X259646Y105956D01*
X259233Y105467D01*
X258833Y104967D01*
X258445Y104458D01*
X258070Y103939D01*
X257707Y103411D01*
X257358Y102875D01*
X257022Y102330D01*
X256699Y101777D01*
X256390Y101217D01*
X256095Y100648D01*
X255814Y100073D01*
X254780Y100560D01*
X254779Y100560D01*
X255073Y101161D01*
X255381Y101754D01*
X255704Y102339D01*
X256040Y102916D01*
X256391Y103485D01*
X256756Y104045D01*
X257134Y104596D01*
X257526Y105137D01*
X257931Y105669D01*
X258349Y106191D01*
X258779Y106702D01*
X259222Y107202D01*
X259677Y107692D01*
X260144Y108170D01*
X260622Y108636D01*
X261112Y109091D01*
X261613Y109534D01*
X262124Y109964D01*
X262646Y110381D01*
X263178Y110786D01*
X263720Y111177D01*
X264271Y111555D01*
X264831Y111919D01*
X265401Y112270D01*
X265978Y112606D01*
X266564Y112928D01*
X267157Y113236D01*
X267757Y113529D01*
X268365Y113807D01*
X268979Y114070D01*
X269600Y114318D01*
X270226Y114551D01*
X270858Y114768D01*
X271496Y114970D01*
X272137Y115156D01*
X272784Y115326D01*
X273434Y115481D01*
X274088Y115619D01*
X274745Y115741D01*
X275405Y115847D01*
X276067Y115937D01*
X276731Y116011D01*
X277397Y116068D01*
X278064Y116109D01*
X278732Y116134D01*
X279400Y116142D01*
X280068Y116134D01*
X280736Y116109D01*
X281403Y116068D01*
X282069Y116011D01*
X282733Y115937D01*
X283395Y115847D01*
X284055Y115741D01*
X284712Y115619D01*
X285366Y115481D01*
X286016Y115326D01*
X286663Y115156D01*
X287304Y114970D01*
X287942Y114768D01*
X288574Y114551D01*
X289200Y114318D01*
X289821Y114070D01*
X290435Y113807D01*
X291043Y113529D01*
X291643Y113236D01*
X292236Y112928D01*
X292822Y112606D01*
X293399Y112270D01*
X293969Y111919D01*
X294529Y111555D01*
X295080Y111177D01*
X295622Y110786D01*
X296154Y110381D01*
X296676Y109964D01*
X297187Y109534D01*
X297688Y109091D01*
X298178Y108636D01*
X298656Y108170D01*
X299123Y107692D01*
X299578Y107202D01*
X300021Y106702D01*
X300451Y106191D01*
X300869Y105669D01*
X301274Y105137D01*
X301666Y104596D01*
X302044Y104045D01*
X302409Y103485D01*
X302760Y102916D01*
X303096Y102339D01*
X303419Y101754D01*
X303727Y101161D01*
X304021Y100560D01*
X303912Y100509D01*
X303620Y101107D01*
X303313Y101697D01*
X302992Y102280D01*
X302657Y102855D01*
X302307Y103421D01*
X301944Y103978D01*
X301568Y104527D01*
X301178Y105066D01*
X300775Y105595D01*
X300359Y106115D01*
X299930Y106624D01*
X299489Y107122D01*
X299036Y107609D01*
X298571Y108085D01*
X298095Y108550D01*
X297607Y109002D01*
X297109Y109443D01*
X296599Y109871D01*
X296080Y110287D01*
X295550Y110689D01*
X295011Y111079D01*
X294462Y111455D01*
X293904Y111818D01*
X293338Y112167D01*
X292763Y112502D01*
X292180Y112822D01*
X291589Y113129D01*
X290991Y113420D01*
X290386Y113697D01*
X289775Y113959D01*
X289157Y114206D01*
X288533Y114438D01*
X287904Y114654D01*
X287270Y114855D01*
X286631Y115040D01*
X285987Y115210D01*
X285340Y115364D01*
X284689Y115501D01*
X284035Y115623D01*
X283378Y115729D01*
X282718Y115818D01*
X282057Y115892D01*
X281394Y115949D01*
X280730Y115989D01*
X280065Y116014D01*
X279400Y116022D01*
X278735Y116014D01*
X278070Y115989D01*
X277406Y115949D01*
X276743Y115892D01*
X276082Y115818D01*
X275422Y115729D01*
X274765Y115623D01*
X274111Y115501D01*
X273460Y115364D01*
X272813Y115210D01*
X272169Y115040D01*
X271530Y114855D01*
X270896Y114654D01*
X270267Y114438D01*
X269643Y114206D01*
X269025Y113959D01*
X268414Y113697D01*
X267809Y113420D01*
X267211Y113129D01*
X266620Y112822D01*
X266037Y112502D01*
X265462Y112167D01*
X264896Y111818D01*
X264338Y111455D01*
X263789Y111079D01*
X263250Y110689D01*
X262720Y110287D01*
X262201Y109871D01*
X261691Y109443D01*
X261193Y109002D01*
X260705Y108550D01*
X260229Y108085D01*
X259764Y107609D01*
X259311Y107122D01*
X258870Y106624D01*
X258441Y106115D01*
X258025Y105595D01*
X257622Y105066D01*
X257232Y104527D01*
X256856Y103978D01*
X256493Y103421D01*
X256143Y102855D01*
X255808Y102280D01*
X255487Y101697D01*
X255180Y101107D01*
X254888Y100509D01*
X254997Y100458D01*
X255287Y101053D01*
X255593Y101641D01*
X255913Y102221D01*
X256246Y102793D01*
X256594Y103357D01*
X256956Y103912D01*
X257331Y104458D01*
X257719Y104995D01*
X258120Y105522D01*
X258534Y106039D01*
X258961Y106545D01*
X259400Y107041D01*
X259851Y107526D01*
X260314Y108000D01*
X260788Y108463D01*
X261274Y108913D01*
X261770Y109352D01*
X262277Y109778D01*
X262794Y110192D01*
X263321Y110593D01*
X263858Y110981D01*
X264405Y111356D01*
X264960Y111717D01*
X265524Y112064D01*
X266096Y112397D01*
X266677Y112717D01*
X267265Y113022D01*
X267860Y113312D01*
X268463Y113588D01*
X269071Y113849D01*
X269686Y114094D01*
X270307Y114325D01*
X270934Y114540D01*
X271565Y114740D01*
X272202Y114925D01*
X272842Y115094D01*
X273487Y115247D01*
X274135Y115384D01*
X274786Y115505D01*
X275440Y115610D01*
X276096Y115699D01*
X276755Y115772D01*
X277415Y115829D01*
X278076Y115870D01*
X278738Y115894D01*
X279400Y115902D01*
X280062Y115894D01*
X280724Y115870D01*
X281385Y115829D01*
X282045Y115772D01*
X282704Y115699D01*
X283360Y115610D01*
X284014Y115505D01*
X284665Y115384D01*
X285313Y115247D01*
X285958Y115094D01*
X286598Y114925D01*
X287235Y114740D01*
X287866Y114540D01*
X288493Y114325D01*
X289114Y114094D01*
X289729Y113849D01*
X290337Y113588D01*
X290940Y113312D01*
X291535Y113022D01*
X292123Y112717D01*
X292704Y112397D01*
X293276Y112064D01*
X293840Y111717D01*
X294395Y111356D01*
X294942Y110981D01*
X295479Y110593D01*
X296006Y110192D01*
X296523Y109778D01*
X297030Y109352D01*
X297526Y108913D01*
X298012Y108463D01*
X298486Y108000D01*
X298949Y107526D01*
X299400Y107041D01*
X299839Y106545D01*
X300266Y106039D01*
X300680Y105522D01*
X301081Y104995D01*
X301469Y104458D01*
X301844Y103912D01*
X302206Y103357D01*
X302554Y102793D01*
X302887Y102221D01*
X303207Y101641D01*
X303513Y101053D01*
X303803Y100458D01*
X303695Y100407D01*
X303405Y100999D01*
X303101Y101584D01*
X302783Y102162D01*
X302451Y102732D01*
X302104Y103293D01*
X301744Y103845D01*
X301371Y104389D01*
X300985Y104923D01*
X300585Y105448D01*
X300173Y105963D01*
X299748Y106467D01*
X299311Y106961D01*
X298862Y107444D01*
X298401Y107916D01*
X297929Y108376D01*
X297446Y108825D01*
X296952Y109261D01*
X296447Y109686D01*
X295932Y110098D01*
X295407Y110497D01*
X294872Y110883D01*
X294328Y111256D01*
X293776Y111615D01*
X293214Y111961D01*
X292644Y112293D01*
X292066Y112611D01*
X291481Y112914D01*
X290888Y113203D01*
X290289Y113478D01*
X289683Y113738D01*
X289070Y113982D01*
X288452Y114212D01*
X287828Y114427D01*
X287200Y114626D01*
X286566Y114809D01*
X285929Y114977D01*
X285287Y115129D01*
X284642Y115266D01*
X283994Y115387D01*
X283343Y115491D01*
X282689Y115580D01*
X282034Y115653D01*
X281377Y115709D01*
X280718Y115750D01*
X280059Y115774D01*
X279400Y115782D01*
X278741Y115774D01*
X278082Y115750D01*
X277423Y115709D01*
X276766Y115653D01*
X276111Y115580D01*
X275457Y115491D01*
X274806Y115387D01*
X274158Y115266D01*
X273513Y115129D01*
X272871Y114977D01*
X272234Y114809D01*
X271600Y114626D01*
X270972Y114427D01*
X270348Y114212D01*
X269730Y113982D01*
X269117Y113738D01*
X268511Y113478D01*
X267912Y113203D01*
X267319Y112914D01*
X266734Y112611D01*
X266156Y112293D01*
X265586Y111961D01*
X265024Y111615D01*
X264472Y111256D01*
X263928Y110883D01*
X263393Y110497D01*
X262868Y110098D01*
X262353Y109686D01*
X261848Y109261D01*
X261354Y108825D01*
X260871Y108376D01*
X260399Y107916D01*
X259938Y107444D01*
X259489Y106961D01*
X259052Y106467D01*
X258627Y105963D01*
X258215Y105448D01*
X257815Y104923D01*
X257429Y104389D01*
X257056Y103845D01*
X256696Y103293D01*
X256349Y102732D01*
X256017Y102162D01*
X255699Y101584D01*
X255395Y100999D01*
X255105Y100407D01*
X255214Y100356D01*
X255502Y100945D01*
X255805Y101528D01*
X256122Y102103D01*
X256452Y102670D01*
X256797Y103229D01*
X257155Y103779D01*
X257527Y104320D01*
X257912Y104852D01*
X258310Y105374D01*
X258720Y105887D01*
X259143Y106389D01*
X259578Y106880D01*
X260025Y107361D01*
X260484Y107831D01*
X260954Y108289D01*
X261435Y108736D01*
X261927Y109171D01*
X262429Y109593D01*
X262942Y110003D01*
X263465Y110400D01*
X263997Y110785D01*
X264538Y111156D01*
X265089Y111514D01*
X265648Y111858D01*
X266215Y112189D01*
X266790Y112505D01*
X267373Y112807D01*
X267963Y113095D01*
X268560Y113368D01*
X269163Y113627D01*
X269773Y113870D01*
X270388Y114099D01*
X271009Y114313D01*
X271635Y114511D01*
X272266Y114694D01*
X272900Y114861D01*
X273539Y115012D01*
X274182Y115148D01*
X274827Y115268D01*
X275475Y115373D01*
X276126Y115461D01*
X276778Y115533D01*
X277432Y115590D01*
X278087Y115630D01*
X278744Y115654D01*
X279400Y115662D01*
X280056Y115654D01*
X280713Y115630D01*
X281368Y115590D01*
X282022Y115533D01*
X282674Y115461D01*
X283325Y115373D01*
X283973Y115268D01*
X284618Y115148D01*
X285261Y115012D01*
X285900Y114861D01*
X286534Y114694D01*
X287165Y114511D01*
X287791Y114313D01*
X288412Y114099D01*
X289027Y113870D01*
X289637Y113627D01*
X290240Y113368D01*
X290837Y113095D01*
X291427Y112807D01*
X292010Y112505D01*
X292585Y112189D01*
X293152Y111858D01*
X293711Y111514D01*
X294262Y111156D01*
X294803Y110785D01*
X295335Y110400D01*
X295858Y110003D01*
X296371Y109593D01*
X296873Y109171D01*
X297365Y108736D01*
X297846Y108289D01*
X298316Y107831D01*
X298775Y107361D01*
X299222Y106880D01*
X299657Y106389D01*
X300080Y105887D01*
X300490Y105374D01*
X300888Y104852D01*
X301273Y104320D01*
X301645Y103779D01*
X302003Y103229D01*
X302348Y102670D01*
X302678Y102103D01*
X302995Y101528D01*
X303298Y100945D01*
X303586Y100356D01*
X303478Y100305D01*
X303191Y100892D01*
X302889Y101472D01*
X302574Y102044D01*
X302245Y102609D01*
X301901Y103165D01*
X301545Y103712D01*
X301175Y104251D01*
X300792Y104781D01*
X300396Y105301D01*
X299987Y105811D01*
X299566Y106311D01*
X299133Y106800D01*
X298688Y107279D01*
X298231Y107746D01*
X297763Y108202D01*
X297284Y108647D01*
X296795Y109080D01*
X296294Y109500D01*
X295784Y109909D01*
X295264Y110304D01*
X294734Y110687D01*
X294195Y111056D01*
X293647Y111413D01*
X293091Y111755D01*
X292526Y112084D01*
X291953Y112399D01*
X291373Y112700D01*
X290786Y112987D01*
X290191Y113259D01*
X289591Y113516D01*
X288984Y113759D01*
X288371Y113986D01*
X287753Y114199D01*
X287130Y114396D01*
X286502Y114578D01*
X285870Y114744D01*
X285234Y114895D01*
X284595Y115031D01*
X283953Y115150D01*
X283307Y115254D01*
X282660Y115342D01*
X282010Y115414D01*
X281359Y115470D01*
X280707Y115510D01*
X280054Y115534D01*
X279400Y115542D01*
X278746Y115534D01*
X278093Y115510D01*
X277441Y115470D01*
X276790Y115414D01*
X276140Y115342D01*
X275493Y115254D01*
X274847Y115150D01*
X274205Y115031D01*
X273566Y114895D01*
X272930Y114744D01*
X272298Y114578D01*
X271670Y114396D01*
X271047Y114199D01*
X270429Y113986D01*
X269816Y113759D01*
X269209Y113516D01*
X268609Y113259D01*
X268014Y112987D01*
X267427Y112700D01*
X266847Y112399D01*
X266274Y112084D01*
X265709Y111755D01*
X265153Y111413D01*
X264605Y111056D01*
X264066Y110687D01*
X263536Y110304D01*
X263016Y109909D01*
X262506Y109500D01*
X262005Y109080D01*
X261516Y108647D01*
X261037Y108202D01*
X260569Y107746D01*
X260112Y107279D01*
X259667Y106800D01*
X259234Y106311D01*
X258813Y105811D01*
X258404Y105301D01*
X258008Y104781D01*
X257625Y104251D01*
X257255Y103712D01*
X256899Y103165D01*
X256555Y102609D01*
X256226Y102044D01*
X255911Y101472D01*
X255609Y100892D01*
X255322Y100305D01*
X255431Y100253D01*
X255717Y100838D01*
X256017Y101415D01*
X256331Y101985D01*
X256658Y102547D01*
X257000Y103101D01*
X257355Y103646D01*
X257723Y104182D01*
X258105Y104709D01*
X258499Y105227D01*
X258906Y105735D01*
X259325Y106232D01*
X259756Y106719D01*
X260199Y107196D01*
X260654Y107661D01*
X261119Y108116D01*
X261596Y108558D01*
X262084Y108989D01*
X262582Y109408D01*
X263090Y109814D01*
X263608Y110208D01*
X264135Y110589D01*
X264672Y110957D01*
X265217Y111311D01*
X265771Y111652D01*
X266333Y111980D01*
X266903Y112293D01*
X267481Y112593D01*
X268066Y112878D01*
X268657Y113149D01*
X269255Y113405D01*
X269860Y113647D01*
X270469Y113873D01*
X271085Y114085D01*
X271705Y114281D01*
X272330Y114462D01*
X272959Y114628D01*
X273592Y114778D01*
X274228Y114913D01*
X274868Y115032D01*
X275510Y115135D01*
X276155Y115223D01*
X276802Y115294D01*
X277450Y115350D01*
X278099Y115390D01*
X278749Y115414D01*
X279400Y115422D01*
X280051Y115414D01*
X280701Y115390D01*
X281350Y115350D01*
X281998Y115294D01*
X282645Y115223D01*
X283290Y115135D01*
X283932Y115032D01*
X284572Y114913D01*
X285208Y114778D01*
X285841Y114628D01*
X286470Y114462D01*
X287095Y114281D01*
X287715Y114085D01*
X288331Y113873D01*
X288940Y113647D01*
X289545Y113405D01*
X290143Y113149D01*
X290734Y112878D01*
X291319Y112593D01*
X291897Y112293D01*
X292467Y111980D01*
X293029Y111652D01*
X293583Y111311D01*
X294128Y110957D01*
X294665Y110589D01*
X295192Y110208D01*
X295710Y109814D01*
X296218Y109408D01*
X296716Y108989D01*
X297204Y108558D01*
X297681Y108116D01*
X298146Y107661D01*
X298601Y107196D01*
X299044Y106719D01*
X299475Y106232D01*
X299894Y105735D01*
X300301Y105227D01*
X300695Y104709D01*
X301077Y104182D01*
X301445Y103646D01*
X301800Y103101D01*
X302142Y102547D01*
X302469Y101985D01*
X302783Y101415D01*
X303083Y100838D01*
X303369Y100253D01*
X303260Y100202D01*
X302976Y100784D01*
X302677Y101359D01*
X302365Y101926D01*
X302038Y102485D01*
X301698Y103037D01*
X301345Y103579D01*
X300978Y104113D01*
X300599Y104638D01*
X300206Y105153D01*
X299801Y105659D01*
X299384Y106154D01*
X298955Y106639D01*
X298514Y107113D01*
X298061Y107577D01*
X297598Y108029D01*
X297123Y108469D01*
X296638Y108898D01*
X296142Y109315D01*
X295636Y109720D01*
X295121Y110112D01*
X294596Y110491D01*
X294061Y110857D01*
X293518Y111210D01*
X292967Y111550D01*
X292407Y111876D01*
X291840Y112188D01*
X291265Y112486D01*
X290683Y112770D01*
X290094Y113039D01*
X289499Y113294D01*
X288897Y113535D01*
X288290Y113760D01*
X287678Y113971D01*
X287060Y114166D01*
X286438Y114347D01*
X285812Y114512D01*
X285182Y114661D01*
X284548Y114795D01*
X283911Y114914D01*
X283272Y115017D01*
X282630Y115104D01*
X281987Y115175D01*
X281341Y115231D01*
X280695Y115270D01*
X280048Y115294D01*
X279400Y115302D01*
X278752Y115294D01*
X278105Y115270D01*
X277459Y115231D01*
X276813Y115175D01*
X276170Y115104D01*
X275528Y115017D01*
X274889Y114914D01*
X274252Y114795D01*
X273618Y114661D01*
X272988Y114512D01*
X272362Y114347D01*
X271740Y114166D01*
X271122Y113971D01*
X270510Y113760D01*
X269903Y113535D01*
X269301Y113294D01*
X268706Y113039D01*
X268117Y112770D01*
X267535Y112486D01*
X266960Y112188D01*
X266393Y111876D01*
X265833Y111550D01*
X265282Y111210D01*
X264739Y110857D01*
X264204Y110491D01*
X263679Y110112D01*
X263164Y109720D01*
X262658Y109315D01*
X262162Y108898D01*
X261677Y108469D01*
X261202Y108029D01*
X260739Y107577D01*
X260286Y107113D01*
X259845Y106639D01*
X259416Y106154D01*
X258999Y105659D01*
X258594Y105153D01*
X258201Y104638D01*
X257822Y104113D01*
X257455Y103579D01*
X257102Y103037D01*
X256762Y102485D01*
X256435Y101926D01*
X256123Y101359D01*
X255824Y100784D01*
X255540Y100202D01*
X255648Y100151D01*
X255931Y100730D01*
X256228Y101303D01*
X256540Y101867D01*
X256865Y102424D01*
X257203Y102973D01*
X257555Y103513D01*
X257920Y104044D01*
X258298Y104567D01*
X258688Y105079D01*
X259092Y105583D01*
X259507Y106076D01*
X259934Y106559D01*
X260373Y107031D01*
X260824Y107492D01*
X261285Y107942D01*
X261758Y108381D01*
X262241Y108807D01*
X262734Y109222D01*
X263238Y109625D01*
X263751Y110015D01*
X264274Y110393D01*
X264805Y110757D01*
X265346Y111109D01*
X265895Y111447D01*
X266452Y111771D01*
X267017Y112082D01*
X267589Y112379D01*
X268169Y112661D01*
X268755Y112930D01*
X269347Y113183D01*
X269946Y113423D01*
X270550Y113647D01*
X271160Y113857D01*
X271775Y114051D01*
X272394Y114231D01*
X273017Y114395D01*
X273645Y114544D01*
X274275Y114678D01*
X274909Y114795D01*
X275546Y114898D01*
X276184Y114985D01*
X276825Y115056D01*
X277468Y115111D01*
X278111Y115150D01*
X278755Y115174D01*
X279400Y115182D01*
X280045Y115174D01*
X280689Y115150D01*
X281332Y115111D01*
X281975Y115056D01*
X282616Y114985D01*
X283254Y114898D01*
X283891Y114795D01*
X284525Y114678D01*
X285155Y114544D01*
X285783Y114395D01*
X286406Y114231D01*
X287025Y114051D01*
X287640Y113857D01*
X288250Y113647D01*
X288854Y113423D01*
X289453Y113183D01*
X290045Y112930D01*
X290631Y112661D01*
X291211Y112379D01*
X291783Y112082D01*
X292348Y111771D01*
X292905Y111447D01*
X293454Y111109D01*
X293995Y110757D01*
X294526Y110393D01*
X295049Y110015D01*
X295562Y109625D01*
X296066Y109222D01*
X296559Y108807D01*
X297042Y108381D01*
X297515Y107942D01*
X297976Y107492D01*
X298427Y107031D01*
X298866Y106559D01*
X299293Y106076D01*
X299708Y105583D01*
X300112Y105079D01*
X300502Y104567D01*
X300880Y104044D01*
X301245Y103513D01*
X301597Y102973D01*
X301935Y102424D01*
X302260Y101867D01*
X302572Y101303D01*
X302869Y100730D01*
X303152Y100151D01*
X303043Y100100D01*
X302762Y100677D01*
X302466Y101246D01*
X302156Y101808D01*
X301832Y102362D01*
X301495Y102909D01*
X301145Y103446D01*
X300782Y103975D01*
X300406Y104495D01*
X300017Y105006D01*
X299616Y105507D01*
X299202Y105997D01*
X298777Y106478D01*
X298340Y106948D01*
X297891Y107407D01*
X297432Y107855D01*
X296962Y108292D01*
X296481Y108717D01*
X295989Y109130D01*
X295488Y109530D01*
X294977Y109919D01*
X294457Y110295D01*
X293928Y110658D01*
X293390Y111007D01*
X292843Y111344D01*
X292289Y111667D01*
X291727Y111976D01*
X291157Y112271D01*
X290580Y112553D01*
X289997Y112820D01*
X289407Y113073D01*
X288811Y113311D01*
X288209Y113534D01*
X287602Y113743D01*
X286990Y113937D01*
X286374Y114115D01*
X285753Y114279D01*
X285129Y114427D01*
X284501Y114560D01*
X283870Y114677D01*
X283237Y114779D01*
X282601Y114865D01*
X281963Y114936D01*
X281324Y114991D01*
X280683Y115031D01*
X280042Y115054D01*
X279400Y115062D01*
X278758Y115054D01*
X278117Y115031D01*
X277476Y114991D01*
X276837Y114936D01*
X276199Y114865D01*
X275563Y114779D01*
X274930Y114677D01*
X274299Y114560D01*
X273671Y114427D01*
X273047Y114279D01*
X272426Y114115D01*
X271810Y113937D01*
X271198Y113743D01*
X270591Y113534D01*
X269989Y113311D01*
X269393Y113073D01*
X268803Y112820D01*
X268220Y112553D01*
X267643Y112271D01*
X267073Y111976D01*
X266511Y111667D01*
X265957Y111344D01*
X265410Y111007D01*
X264872Y110658D01*
X264343Y110295D01*
X263823Y109919D01*
X263312Y109530D01*
X262811Y109130D01*
X262319Y108717D01*
X261838Y108292D01*
X261368Y107855D01*
X260909Y107407D01*
X260460Y106948D01*
X260023Y106478D01*
X259598Y105997D01*
X259184Y105507D01*
X258783Y105006D01*
X258394Y104495D01*
X258018Y103975D01*
X257655Y103446D01*
X257305Y102909D01*
X256968Y102362D01*
X256644Y101808D01*
X256334Y101246D01*
X256038Y100677D01*
X255757Y100100D01*
X254775Y77241D02*
X255810Y77727D01*
X255809Y77727D02*
X256064Y77204D01*
X256330Y76688D01*
X256608Y76177D01*
X256897Y75673D01*
X257197Y75175D01*
X257508Y74684D01*
X257830Y74200D01*
X258163Y73724D01*
X258506Y73255D01*
X258859Y72794D01*
X257962Y72086D01*
X257592Y72568D01*
X257234Y73058D01*
X256886Y73556D01*
X256550Y74061D01*
X256225Y74574D01*
X255911Y75094D01*
X255609Y75621D01*
X255319Y76154D01*
X255041Y76694D01*
X254775Y77240D01*
X254883Y77291D01*
X255148Y76748D01*
X255425Y76210D01*
X255714Y75679D01*
X256015Y75155D01*
X256327Y74637D01*
X256650Y74127D01*
X256985Y73623D01*
X257331Y73128D01*
X257688Y72640D01*
X258056Y72160D01*
X258150Y72235D01*
X257784Y72712D01*
X257429Y73198D01*
X257084Y73691D01*
X256751Y74192D01*
X256429Y74700D01*
X256118Y75216D01*
X255819Y75738D01*
X255531Y76266D01*
X255256Y76801D01*
X254992Y77342D01*
X255101Y77393D01*
X255363Y76855D01*
X255637Y76322D01*
X255924Y75796D01*
X256221Y75276D01*
X256531Y74763D01*
X256851Y74258D01*
X257183Y73759D01*
X257526Y73268D01*
X257880Y72784D01*
X258245Y72309D01*
X258339Y72383D01*
X257976Y72856D01*
X257624Y73338D01*
X257282Y73827D01*
X256952Y74323D01*
X256633Y74827D01*
X256325Y75337D01*
X256028Y75855D01*
X255744Y76378D01*
X255470Y76908D01*
X255209Y77445D01*
X255318Y77496D01*
X255578Y76962D01*
X255850Y76434D01*
X256133Y75913D01*
X256428Y75398D01*
X256735Y74890D01*
X257053Y74388D01*
X257382Y73894D01*
X257721Y73408D01*
X258072Y72929D01*
X258433Y72457D01*
X258527Y72532D01*
X258168Y73001D01*
X257819Y73477D01*
X257481Y73962D01*
X257153Y74454D01*
X256837Y74953D01*
X256532Y75459D01*
X256238Y75971D01*
X255956Y76490D01*
X255685Y77016D01*
X255426Y77547D01*
X255535Y77598D01*
X255793Y77069D01*
X256062Y76546D01*
X256343Y76030D01*
X256635Y75520D01*
X256939Y75016D01*
X257254Y74519D01*
X257580Y74030D01*
X257916Y73547D01*
X258264Y73073D01*
X258621Y72606D01*
X258716Y72680D01*
X258360Y73145D01*
X258014Y73617D01*
X257679Y74097D01*
X257355Y74585D01*
X257041Y75079D01*
X256739Y75580D01*
X256448Y76088D01*
X256168Y76602D01*
X255900Y77123D01*
X255643Y77649D01*
X255752Y77700D01*
X256007Y77176D01*
X256274Y76658D01*
X256553Y76147D01*
X256842Y75641D01*
X257143Y75142D01*
X257455Y74650D01*
X257778Y74165D01*
X258111Y73687D01*
X258456Y73217D01*
X258810Y72755D01*
D10*
X265360Y87630D02*
X268040Y87630D01*
X290760Y87630D02*
X293440Y87630D01*
D13*
X300838Y72086D02*
X299940Y72794D01*
X299941Y72794D02*
X300310Y73276D01*
X300668Y73766D01*
X301014Y74265D01*
X301349Y74772D01*
X301671Y75286D01*
X301982Y75808D01*
X302281Y76336D01*
X302567Y76872D01*
X302840Y77414D01*
X303101Y77962D01*
X304140Y77486D01*
X303868Y76913D01*
X303582Y76347D01*
X303283Y75787D01*
X302971Y75235D01*
X302646Y74690D01*
X302309Y74152D01*
X301960Y73623D01*
X301598Y73102D01*
X301224Y72590D01*
X300838Y72086D01*
X300744Y72160D01*
X301128Y72662D01*
X301500Y73172D01*
X301860Y73690D01*
X302208Y74217D01*
X302544Y74752D01*
X302867Y75295D01*
X303178Y75845D01*
X303475Y76402D01*
X303760Y76966D01*
X304031Y77536D01*
X303922Y77586D01*
X303652Y77018D01*
X303369Y76457D01*
X303072Y75903D01*
X302763Y75355D01*
X302442Y74815D01*
X302108Y74282D01*
X301761Y73758D01*
X301402Y73242D01*
X301032Y72734D01*
X300650Y72235D01*
X300555Y72309D01*
X300936Y72806D01*
X301305Y73311D01*
X301662Y73825D01*
X302007Y74347D01*
X302339Y74878D01*
X302660Y75415D01*
X302967Y75960D01*
X303262Y76512D01*
X303544Y77071D01*
X303813Y77636D01*
X303704Y77686D01*
X303436Y77124D01*
X303155Y76567D01*
X302862Y76018D01*
X302556Y75475D01*
X302237Y74940D01*
X301906Y74412D01*
X301562Y73893D01*
X301207Y73381D01*
X300840Y72878D01*
X300461Y72383D01*
X300367Y72457D01*
X300744Y72950D01*
X301109Y73451D01*
X301463Y73960D01*
X301805Y74477D01*
X302135Y75003D01*
X302452Y75536D01*
X302757Y76076D01*
X303049Y76622D01*
X303328Y77176D01*
X303595Y77736D01*
X303486Y77786D01*
X303220Y77229D01*
X302942Y76678D01*
X302651Y76133D01*
X302348Y75596D01*
X302032Y75065D01*
X301704Y74542D01*
X301364Y74027D01*
X301012Y73520D01*
X300648Y73022D01*
X300273Y72532D01*
X300179Y72606D01*
X300552Y73094D01*
X300914Y73590D01*
X301265Y74095D01*
X301603Y74608D01*
X301930Y75128D01*
X302244Y75656D01*
X302546Y76191D01*
X302836Y76733D01*
X303113Y77281D01*
X303377Y77836D01*
X303267Y77886D01*
X303005Y77334D01*
X302729Y76788D01*
X302441Y76249D01*
X302140Y75716D01*
X301827Y75191D01*
X301502Y74673D01*
X301165Y74162D01*
X300817Y73660D01*
X300456Y73166D01*
X300084Y72680D01*
X299990Y72755D01*
X300360Y73238D01*
X300719Y73730D01*
X301066Y74230D01*
X301402Y74738D01*
X301725Y75253D01*
X302037Y75776D01*
X302336Y76306D01*
X302623Y76843D01*
X302897Y77387D01*
X303158Y77936D01*
D10*
X257810Y120015D02*
X257810Y131445D01*
X254635Y131445D02*
X260985Y131445D01*
X268796Y131446D02*
X268900Y131444D01*
X269005Y131438D01*
X269109Y131429D01*
X269212Y131416D01*
X269315Y131398D01*
X269417Y131378D01*
X269519Y131353D01*
X269619Y131325D01*
X269719Y131293D01*
X269817Y131257D01*
X269914Y131218D01*
X270009Y131176D01*
X270103Y131130D01*
X270195Y131080D01*
X270285Y131028D01*
X270373Y130972D01*
X270459Y130912D01*
X270543Y130850D01*
X270624Y130785D01*
X270703Y130717D01*
X270780Y130645D01*
X270853Y130572D01*
X270925Y130495D01*
X270993Y130416D01*
X271058Y130335D01*
X271120Y130251D01*
X271180Y130165D01*
X271236Y130077D01*
X271288Y129987D01*
X271338Y129895D01*
X271384Y129801D01*
X271426Y129706D01*
X271465Y129609D01*
X271501Y129511D01*
X271533Y129411D01*
X271561Y129311D01*
X271586Y129209D01*
X271606Y129107D01*
X271624Y129004D01*
X271637Y128901D01*
X271646Y128797D01*
X271652Y128692D01*
X271654Y128588D01*
X268796Y131445D02*
X268678Y131443D01*
X268559Y131437D01*
X268441Y131428D01*
X268324Y131415D01*
X268207Y131397D01*
X268090Y131377D01*
X267974Y131352D01*
X267859Y131324D01*
X267746Y131291D01*
X267633Y131256D01*
X267521Y131216D01*
X267411Y131174D01*
X267302Y131127D01*
X267194Y131077D01*
X267089Y131024D01*
X266985Y130967D01*
X266883Y130907D01*
X266783Y130844D01*
X266685Y130777D01*
X266589Y130708D01*
X266496Y130635D01*
X266405Y130559D01*
X266316Y130481D01*
X266230Y130399D01*
X266147Y130315D01*
X266066Y130229D01*
X265989Y130139D01*
X265914Y130048D01*
X265842Y129954D01*
X265773Y129857D01*
X265708Y129759D01*
X265645Y129658D01*
X265586Y129555D01*
X265530Y129451D01*
X265478Y129345D01*
X265429Y129237D01*
X265384Y129128D01*
X265342Y129017D01*
X265304Y128905D01*
X270701Y126366D02*
X270777Y126441D01*
X270852Y126520D01*
X270923Y126601D01*
X270992Y126685D01*
X271057Y126771D01*
X271119Y126859D01*
X271179Y126949D01*
X271235Y127041D01*
X271288Y127136D01*
X271337Y127232D01*
X271383Y127330D01*
X271426Y127429D01*
X271465Y127530D01*
X271500Y127632D01*
X271532Y127735D01*
X271560Y127839D01*
X271585Y127944D01*
X271606Y128051D01*
X271623Y128157D01*
X271636Y128264D01*
X271645Y128372D01*
X271651Y128480D01*
X271653Y128588D01*
X270701Y126365D02*
X265303Y120015D01*
X271653Y120015D01*
M02*
