G04 EAGLE Gerber RS-274X export*
G75*
%MOMM*%
%FSLAX34Y34*%
%LPD*%
%INSoldermask Top*%
%IPPOS*%
%AMOC8*
5,1,8,0,0,1.08239X$1,22.5*%
G01*
%ADD10R,1.303200X1.203200*%
%ADD11R,1.203200X1.303200*%
%ADD12R,1.403200X2.203200*%
%ADD13R,0.803200X1.553200*%
%ADD14C,1.524000*%
%ADD15C,0.959600*%


D10*
X143900Y88900D03*
X160900Y88900D03*
D11*
X101600Y182000D03*
X101600Y199000D03*
D10*
X436000Y88900D03*
X453000Y88900D03*
D12*
X276800Y242650D03*
X332800Y242650D03*
D13*
X289800Y279400D03*
X299800Y279400D03*
X309800Y279400D03*
X319800Y279400D03*
D10*
X436000Y330200D03*
X453000Y330200D03*
X232800Y330200D03*
X249800Y330200D03*
X160900Y279400D03*
X143900Y279400D03*
D11*
X292100Y182000D03*
X292100Y199000D03*
D10*
X465700Y393700D03*
X448700Y393700D03*
X143900Y393700D03*
X160900Y393700D03*
D14*
X254000Y95504D02*
X254000Y82296D01*
X304800Y82296D02*
X304800Y95504D01*
X279400Y95504D02*
X279400Y82296D01*
D15*
X177800Y279400D03*
X203200Y279400D03*
X279400Y215900D03*
X317500Y215900D03*
X393700Y304800D03*
X419100Y393700D03*
X444500Y292100D03*
X228600Y177800D03*
X127000Y177800D03*
X457200Y203200D03*
X342900Y203200D03*
X292100Y355600D03*
X292100Y304800D03*
X215900Y203200D03*
X127000Y203200D03*
X215900Y127000D03*
M02*
