G04 EAGLE Gerber RS-274X export*
G75*
%MOMM*%
%FSLAX34Y34*%
%LPD*%
%INTop Copper*%
%IPPOS*%
%AMOC8*
5,1,8,0,0,1.08239X$1,22.5*%
G01*
%ADD10R,1.000000X1.100000*%
%ADD11R,1.200000X2.000000*%
%ADD12R,0.600000X1.350000*%
%ADD13R,1.100000X1.000000*%
%ADD14C,1.320800*%
%ADD15C,0.152400*%
%ADD16C,0.756400*%


D10*
X25400Y42300D03*
X25400Y59300D03*
X254000Y59300D03*
X254000Y42300D03*
D11*
X86300Y204550D03*
X142300Y204550D03*
D12*
X99300Y241300D03*
X109300Y241300D03*
X119300Y241300D03*
X129300Y241300D03*
D13*
X122800Y139700D03*
X105800Y139700D03*
X93100Y330200D03*
X110100Y330200D03*
X33900Y292100D03*
X16900Y292100D03*
D10*
X228600Y262500D03*
X228600Y245500D03*
D13*
X232800Y368300D03*
X249800Y368300D03*
X16900Y368300D03*
X33900Y368300D03*
D14*
X88900Y57404D02*
X88900Y44196D01*
X139700Y44196D02*
X139700Y57404D01*
X114300Y57404D02*
X114300Y44196D01*
D15*
X109300Y241345D02*
X110100Y330200D01*
X109300Y241345D02*
X109300Y241300D01*
X109300Y241345D02*
X105800Y139700D01*
D16*
X127000Y304800D03*
D15*
X127000Y292100D01*
X33900Y292100D02*
X38100Y241300D01*
D16*
X38100Y241300D03*
D15*
X127000Y254000D02*
X127000Y292100D01*
X127000Y254000D02*
X119300Y241300D01*
X226353Y375586D02*
X239247Y375586D01*
X246533Y368300D02*
X249800Y368300D01*
X246533Y368300D02*
X239247Y375586D01*
X254000Y45567D02*
X254000Y42300D01*
X129300Y236783D02*
X129300Y241300D01*
X261286Y52853D02*
X254000Y45567D01*
X261286Y52853D02*
X261286Y104797D01*
X157641Y208441D01*
X129300Y236783D01*
X225014Y374247D02*
X226353Y375586D01*
X225014Y374247D02*
X225014Y275814D01*
X157641Y208441D01*
X232800Y266700D02*
X232800Y368300D01*
X232800Y266700D02*
X228600Y262500D01*
X228600Y259233D01*
X221314Y251947D02*
X221314Y221314D01*
X190500Y190500D01*
X221314Y251947D02*
X228600Y259233D01*
D16*
X190500Y190500D03*
X76200Y165100D03*
D15*
X76200Y228600D01*
X88900Y241300D01*
X99300Y241300D01*
X25400Y317500D02*
X16900Y368300D01*
D16*
X25400Y317500D03*
X50800Y317500D03*
D15*
X63500Y304800D01*
X63500Y241300D01*
X76200Y228600D01*
X139700Y50800D02*
X254000Y59300D01*
X139700Y50800D02*
X122800Y139700D01*
X228600Y177800D02*
X228600Y245500D01*
D16*
X228600Y177800D03*
X63500Y63500D03*
D15*
X76200Y50800D01*
X88900Y50800D01*
X33900Y305833D02*
X33900Y368300D01*
X33900Y305833D02*
X41686Y298047D01*
X41686Y75586D02*
X25400Y59300D01*
X41686Y75586D02*
X50800Y75586D01*
X89514Y75586D01*
X114300Y50800D01*
X55000Y368300D02*
X33900Y368300D01*
X55000Y368300D02*
X93100Y330200D01*
X41686Y298047D02*
X50800Y279400D01*
X50800Y75586D01*
X25400Y45567D02*
X25400Y42300D01*
X25400Y45567D02*
X18114Y52853D01*
X18114Y290886D02*
X16900Y292100D01*
X18114Y290886D02*
X18114Y52853D01*
M02*
